<svg xmlns="http://www.w3.org/2000/svg" width="621.302" height="626.86" viewBox="0 0 621.302 626.86">
  <path id="Path_7" data-name="Path 7" d="M500,209.65c58.192,4.66,93.871,61.952,142.762,93.854,52.611,34.33,126.531,43.622,154.291,99.977,28.622,58.1,19.509,132.513-11.85,189.187-29.185,52.745-100.011,59.807-146.891,97.7-50.961,41.2-75.347,114.7-138.313,132.845-70.259,20.251-161.829,21.586-211.586-31.993-50.488-54.367-1.719-144.148-18.993-216.3-15.059-62.9-89.389-111.1-74.454-174.031,14.912-62.834,89.915-87.36,144.63-121.664,50.617-31.734,100.85-74.344,160.4-69.575" transform="translate(-192.996 -209.283)" fill="#f6f2ee"/>
</svg>
