<svg xmlns="http://www.w3.org/2000/svg" xmlns:xlink="http://www.w3.org/1999/xlink" viewBox="0 0 930.43 476.16"><defs><style>.cls-1{fill:none;}.cls-2{clip-path:url(#clip-path);}.cls-3{fill:#828282;}.cls-4{fill:#fff;}.cls-5{fill:#f2f2f2;}.cls-6{fill:#ce1126;}.cls-7{fill:#3f3d56;}.cls-8{fill:#fcd116;stroke:#fff;stroke-miterlimit:10;}.cls-9{fill:#ccc;}.cls-10{fill:#606060;}.cls-11{fill:#2f2e41;}.cls-12{fill:#e6e6e6;}.cls-13{fill:#0038a8;}.cls-14{opacity:0.2;isolation:isolate;}</style><clipPath id="clip-path" transform="translate(-33.98 -40.22)"><rect class="cls-1" width="1019.48" height="523"/></clipPath></defs><g id="Layer_2" data-name="Layer 2"><g id="Layer_2-2" data-name="Layer 2"><g class="cls-2"><path class="cls-3" d="M829.31,40.22H189.93a17.6,17.6,0,0,0-17.6,17.59h0V414.07a17.6,17.6,0,0,0,17.6,17.6H829.31a17.6,17.6,0,0,0,17.6-17.6V57.81a17.6,17.6,0,0,0-17.6-17.59Z" transform="translate(-33.98 -40.22)"/><rect class="cls-4" x="161.94" y="31.1" width="627.39" height="353.91"/><circle class="cls-4" cx="475.1" cy="15.01" r="6.43"/><polygon class="cls-5" points="609.91 385.01 161.94 385.01 161.94 31.1 609.91 385.01"/><circle class="cls-6" cx="249.8" cy="323.48" r="37.69"/><path class="cls-7" d="M292.17,392a46.88,46.88,0,1,1,46.88-46.88A46.88,46.88,0,0,1,292.17,392Zm0-93.15a46.27,46.27,0,1,0,46.27,46.27,46.27,46.27,0,0,0-46.27-46.27Z" transform="translate(-33.98 -40.22)"/><rect class="cls-8" x="585.49" y="214.97" width="58.61" height="12.25"/><rect class="cls-7" x="530.04" y="148.63" width="169.5" height="5.25"/><rect class="cls-7" x="530.04" y="169.25" width="169.5" height="5.25"/><rect class="cls-7" x="530.04" y="189.87" width="169.5" height="5.25"/><rect class="cls-8" x="720.46" y="52.28" width="24.49" height="24.49"/><path class="cls-9" d="M790.3,128.36H760.56V98.62H790.3Zm-28.45-1.29H789V99.91H761.85Z" transform="translate(-33.98 -40.22)"/><path class="cls-3" d="M864.53,418.8H803.3v-4.42a.88.88,0,0,0-.88-.87h-21a.88.88,0,0,0-.88.87h0v4.42H767.43v-4.42a.87.87,0,0,0-.87-.87h-21a.87.87,0,0,0-.88.87h0v4.42H731.57v-4.42a.87.87,0,0,0-.87-.87h-21a.87.87,0,0,0-.87.87h0v4.42H695.71v-4.42a.87.87,0,0,0-.88-.87h-21a.88.88,0,0,0-.88.87h0v4.42H659.84v-4.42a.87.87,0,0,0-.87-.87H638a.87.87,0,0,0-.88.87h0v4.42H624v-4.42a.87.87,0,0,0-.87-.87h-21a.87.87,0,0,0-.87.87h0v4.42H588.12v-4.42a.87.87,0,0,0-.88-.87H422.8a.88.88,0,0,0-.88.87h0v4.42H408.8v-4.42a.87.87,0,0,0-.87-.87h-21a.87.87,0,0,0-.88.87h0v4.42H372.94v-4.42a.87.87,0,0,0-.87-.87h-21a.87.87,0,0,0-.87.87h0v4.42H337.08v-4.42a.87.87,0,0,0-.88-.87h-21a.87.87,0,0,0-.87.87h0v4.42H301.22v-4.42a.88.88,0,0,0-.88-.87h-21a.87.87,0,0,0-.88.87h0v4.42H265.35v-4.42a.87.87,0,0,0-.87-.87h-21a.87.87,0,0,0-.88.87v4.42H229.49v-4.42a.87.87,0,0,0-.87-.87h-21a.87.87,0,0,0-.87.87h0v4.42H166.51a21,21,0,0,0-21,21v9.49a21,21,0,0,0,21,21h698a21,21,0,0,0,21-21v-9.49a21,21,0,0,0-21-21Z" transform="translate(-33.98 -40.22)"/><circle class="cls-4" cx="509.65" cy="45.77" r="6.59"/><path class="cls-9" d="M770.83,456.08a1.06,1.06,0,0,0-1,.79l-1.73,6.42a1.06,1.06,0,0,0,.75,1.31.9.9,0,0,0,.28,0H802a1.07,1.07,0,0,0,1.07-1.07,1,1,0,0,0-.06-.35l-2.23-6.42a1.07,1.07,0,0,0-1-.72Z" transform="translate(-33.98 -40.22)"/><path class="cls-10" d="M583.76,496.87h2.58l-5.15-344.38h-2.58l.1,6.87H521l.1-6.87h-2.58l-5.15,344.38h2.58l.33-22.33h67.18Zm-3.71-248.2H519.63l.63-42.08h59.16Zm0,2.58.63,42.08H519l.63-42.08Zm.67,44.66.63,42.08h-63.1l.63-42.08Zm.67,44.66.63,42.08H517.63l.63-42.08Zm.66,44.66.63,42.08H517l.63-42.08Zm-3.34-223.3.63,42.08H520.3l.63-42.08ZM516.29,472l.63-42.08h65.84l.63,42.08Z" transform="translate(-33.98 -40.22)"/><circle class="cls-11" cx="503.1" cy="188.88" r="42.01"/><rect class="cls-11" x="551.16" y="259.08" width="12.76" height="22.87" transform="translate(-73.25 63.43) rotate(-10.26)"/><rect class="cls-11" x="526.05" y="263.63" width="12.76" height="22.87" transform="translate(-74.46 59.03) rotate(-10.26)"/><ellipse class="cls-11" cx="532.27" cy="289.14" rx="10.64" ry="3.99" transform="translate(-94.75 372.27) rotate(-40.26)"/><ellipse class="cls-11" cx="556.87" cy="284.69" rx="10.64" ry="3.99" transform="translate(-86.05 387.11) rotate(-40.26)"/><circle class="cls-4" cx="500.16" cy="178.6" r="14.36"/><circle class="cls-7" cx="494.25" cy="173.45" r="4.79"/><path class="cls-8" d="M570.22,183.39c.63-15.56-12.77-28.73-29.94-29.43s-31.6,11.35-32.23,26.9,11.3,19.09,28.47,19.79S569.59,198.94,570.22,183.39Z" transform="translate(-33.98 -40.22)"/><ellipse class="cls-11" cx="498.28" cy="221.44" rx="6.59" ry="21.01" transform="translate(137.14 617.44) rotate(-77.09)"/><ellipse class="cls-11" cx="580.75" cy="235.15" rx="6.59" ry="21.01" transform="translate(187.81 708.47) rotate(-77.09)"/><path class="cls-4" d="M548.62,245.65a9.57,9.57,0,0,1-18.84,3.43v0c-.94-5.2,3.08-7,8.28-8S547.67,240.45,548.62,245.65Z" transform="translate(-33.98 -40.22)"/><ellipse class="cls-11" cx="428.47" cy="419.37" rx="21.53" ry="6.76" transform="translate(-150.22 629.65) rotate(-69.08)"/><circle class="cls-11" cx="386.45" cy="453.29" r="41.67" transform="translate(-156.86 721.92) rotate(-80.78)"/><rect class="cls-11" x="335.06" y="445.47" width="13.08" height="23.44"/><rect class="cls-11" x="361.22" y="445.47" width="13.08" height="23.44"/><ellipse class="cls-11" cx="345.96" cy="469.19" rx="10.9" ry="4.09"/><ellipse class="cls-11" cx="372.13" cy="468.64" rx="10.9" ry="4.09"/><path class="cls-8" d="M346.89,411.84c-3.48-15.58,7.63-31.31,24.82-35.15s34,5.67,37.43,21.25-7.92,21.32-25.11,25.15S350.36,427.41,346.89,411.84Z" transform="translate(-33.98 -40.22)"/><ellipse class="cls-11" cx="339.52" cy="433.95" rx="6.54" ry="20.84" transform="translate(-232.04 514.54) rotate(-64.63)"/><circle class="cls-11" cx="118.2" cy="405.28" r="43.07"/><rect class="cls-11" x="98.58" y="439.08" width="13.08" height="23.44"/><rect class="cls-11" x="124.75" y="439.08" width="13.08" height="23.44"/><ellipse class="cls-11" cx="109.48" cy="462.79" rx="10.9" ry="4.09"/><ellipse class="cls-11" cx="135.65" cy="462.25" rx="10.9" ry="4.09"/><circle class="cls-4" cx="119.29" cy="394.38" r="14.72"/><circle class="cls-7" cx="119.29" cy="394.38" r="4.91"/><path class="cls-12" d="M110.41,405.45c-3.48-15.58,7.64-31.31,24.83-35.15s33.94,5.67,37.42,21.25-7.92,21.31-25.11,25.15S113.88,421,110.41,405.45Z" transform="translate(-33.98 -40.22)"/><ellipse class="cls-11" cx="177.27" cy="289.22" rx="21.53" ry="6.76" transform="translate(-190.16 311.34) rotate(-69.08)"/><circle class="cls-11" cx="137.46" cy="321.75" r="43.07" transform="matrix(0.32, -0.95, 0.95, 0.32, -245.22, 310.2)"/><rect class="cls-11" x="83.86" y="315.33" width="13.08" height="23.44"/><rect class="cls-11" x="110.03" y="315.33" width="13.08" height="23.44"/><ellipse class="cls-11" cx="94.76" cy="339.04" rx="10.9" ry="4.09"/><ellipse class="cls-11" cx="120.93" cy="338.5" rx="10.9" ry="4.09"/><circle class="cls-4" cx="104.57" cy="270.63" r="14.72"/><circle class="cls-7" cx="104.57" cy="270.63" r="4.91"/><path class="cls-8" d="M95.69,281.7c-3.48-15.58,7.64-31.32,24.83-35.15s33.94,5.67,37.42,21.25S150,289.11,132.83,293,99.17,297.27,95.69,281.7Z" transform="translate(-33.98 -40.22)"/><ellipse class="cls-11" cx="88.96" cy="301.76" rx="6.76" ry="21.53" transform="translate(-255.8 212.61) rotate(-64.63)"/><path class="cls-4" d="M116.31,337.28c0,4.22,10.85,12.54,22.9,12.54s23.33-11.87,23.33-16.08-11.29.82-23.33.82S116.31,333.07,116.31,337.28Z" transform="translate(-33.98 -40.22)"/><path class="cls-13" d="M189.81,157.3a3,3,0,0,0-3,3v124a3,3,0,0,0,3,3h287a3,3,0,0,0,3-3v-124a3,3,0,0,0-3-3Z" transform="translate(-33.98 -40.22)"/><circle class="cls-4" cx="233.32" cy="182.09" r="29.12"/><path id="b71acdfd-6a55-428e-917a-53f192cb0203" class="cls-4" d="M333,218.43a3.41,3.41,0,0,0,0,6.81H425a3.41,3.41,0,0,0,.11-6.81H333Z" transform="translate(-33.98 -40.22)"/><path id="ad4fbcfa-41b0-45f9-a593-23b6dc3fe165" class="cls-4" d="M333,198.7a3.41,3.41,0,0,0,0,6.81h45.91a3.41,3.41,0,0,0,.12-6.81H333Z" transform="translate(-33.98 -40.22)"/><path id="bce2a7cd-a325-424d-9b3a-f63d1dad5aba" class="cls-4" d="M333,239.09a3.41,3.41,0,0,0,0,6.81H425a3.41,3.41,0,1,0,.11-6.81H333Z" transform="translate(-33.98 -40.22)"/><ellipse class="cls-11" cx="778.37" cy="411.52" rx="6.76" ry="21.53" transform="translate(-129.6 264.81) rotate(-20.92)"/><circle class="cls-11" cx="775.2" cy="412.82" r="43.07"/><polygon class="cls-11" points="794.82 446.62 781.74 446.62 784.3 474.69 794.85 471.83 794.82 446.62"/><polygon class="cls-11" points="766.3 446.69 753.22 446.69 755.78 474.77 765.85 471.83 766.3 446.69"/><ellipse class="cls-11" cx="789.09" cy="512.22" rx="10.9" ry="4.09" transform="translate(-69.23 18.69) rotate(-4.18)"/><circle class="cls-4" cx="774.11" cy="401.92" r="14.72"/><circle class="cls-7" cx="774.11" cy="401.92" r="4.91"/><ellipse class="cls-11" cx="854.69" cy="423.05" rx="21.53" ry="6.76" transform="translate(-27.38 818.98) rotate(-53.55)"/><path class="cls-4" d="M788.17,475.24c0-3.47,8.94-10.33,18.87-10.33s19.23,9.78,19.23,13.25-9.31-.67-19.23-.67S788.17,478.72,788.17,475.24Z" transform="translate(-33.98 -40.22)"/><path class="cls-13" d="M930,417.45,694.2,384.77a7,7,0,0,1-6-7.9l26.5-191.17a7,7,0,0,1,7.89-6l235.75,32.68a7,7,0,0,1,6,7.89l-26.5,191.17A7,7,0,0,1,930,417.45Z" transform="translate(-33.98 -40.22)"/><path class="cls-4" d="M845.49,357.78,725.14,341.1a2.42,2.42,0,0,1-.45-.1l70.59-90.7a4,4,0,0,1,5.64-.76,4.09,4.09,0,0,1,1.3,1.72l29,71.46,1.39,3.42Z" transform="translate(-33.98 -40.22)"/><polygon class="cls-14" points="805.02 354.4 763.93 348.7 788.17 322.2 789.91 320.29 790.78 319.33 792.17 322.75 805.02 354.4"/><path class="cls-4" d="M912.5,367.07,808.41,352.64l24.23-26.5,1.75-1.91L866,289.69a5.38,5.38,0,0,1,7.6.19c.13.14.25.28.37.43a5.64,5.64,0,0,1,.31.53Z" transform="translate(-33.98 -40.22)"/><circle class="cls-4" cx="812.98" cy="222.87" r="18"/><rect class="cls-4" x="725.03" y="195.83" width="22" height="22" transform="translate(396.11 867.27) rotate(-82.11)"/><path class="cls-5" d="M851,413c3.47-15.58-7.64-31.31-24.83-35.15s-34,5.67-37.42,21.25,7.91,21.31,25.1,25.15S847.48,428.56,851,413Z" transform="translate(-33.98 -40.22)"/><ellipse class="cls-11" cx="817.78" cy="512.15" rx="10.9" ry="4.09" transform="translate(-69.15 20.78) rotate(-4.18)"/><ellipse class="cls-11" cx="110.15" cy="424.9" rx="5.02" ry="26.44" transform="translate(-37.18 -39.37) rotate(-0.43)"/><ellipse class="cls-11" cx="179.27" cy="403.93" rx="5.02" ry="26.44" transform="translate(-170.84 54.91) rotate(-21.74)"/><polygon class="cls-6" points="879.4 421.26 855.97 421.26 851.54 436.03 883.83 436.03 879.4 421.26"/><path class="cls-6" d="M906.42,438.26a3.7,3.7,0,0,0-3.54-2.63h-2.43a3.7,3.7,0,0,0-3.54,2.63l-3.64,12.14h16.79Z" transform="translate(-33.98 -40.22)"/><polygon class="cls-6" points="891.59 461.87 887.16 447.1 848.22 447.1 843.78 461.87 834.61 461.87 834.61 469.26 901.08 469.26 901.08 461.87 891.59 461.87"/><polygon class="cls-6" points="44.79 405.06 21.36 405.06 16.93 419.83 49.22 419.83 44.79 405.06"/><path class="cls-6" d="M71.81,422.06a3.7,3.7,0,0,0-3.54-2.63H65.84a3.7,3.7,0,0,0-3.54,2.63L58.66,434.2H75.45Z" transform="translate(-33.98 -40.22)"/><polygon class="cls-6" points="56.98 445.68 52.55 430.91 13.6 430.91 9.17 445.68 0 445.68 0 453.07 66.46 453.07 66.46 445.68 56.98 445.68"/></g></g></g></svg>