<svg xmlns="http://www.w3.org/2000/svg" width="16" height="16" viewBox="0 0 16 16" fill="none">
<path d="M11.1064 0C11.239 0 11.3662 0.0527652 11.46 0.146484L15.8535 4.54004C15.9472 4.6338 16 4.76098 16 4.89355V11.1064C16 11.239 15.9472 11.3662 15.8535 11.46L11.46 15.8535C11.3662 15.9472 11.239 16 11.1064 16H4.89355C4.76098 16 4.6338 15.9472 4.54004 15.8535L0.146484 11.46C0.0527652 11.3662 0 11.239 0 11.1064V4.89355C0 4.76098 0.0527651 4.6338 0.146484 4.54004L4.54004 0.146484C4.6338 0.0527651 4.76098 0 4.89355 0H11.1064ZM12.0303 4.96973C11.7374 4.67684 11.2626 4.67685 10.9697 4.96973C10.9627 4.97675 10.9563 4.98438 10.9502 4.99219L7.47754 9.41699L5.38379 7.32324C5.0909 7.03037 4.61613 7.03037 4.32324 7.32324C4.03036 7.61613 4.03037 8.09089 4.32324 8.38379L6.96973 11.0303C7.26262 11.3231 7.73739 11.3232 8.03027 11.0303C8.03679 11.0238 8.04307 11.017 8.04883 11.0098L12.041 6.01953C12.3232 5.72588 12.3196 5.25903 12.0303 4.96973Z" fill="black"/>
</svg>