<svg width="48" height="48" viewBox="0 0 48 48" fill="none" xmlns="http://www.w3.org/2000/svg">
<path d="M34.3805 0.43934C34.0992 0.158035 33.7176 0 33.3198 0H14.6802C14.2824 0 13.9008 0.158035 13.6195 0.43934L0.43934 13.6195C0.158035 13.9008 0 14.2824 0 14.6802V33.3198C0 33.7176 0.158035 34.0992 0.43934 34.3805L13.6195 47.5607C13.9008 47.842 14.2824 48 14.6802 48H33.3198C33.7176 48 34.0992 47.842 34.3805 47.5607L47.5607 34.3805C47.842 34.0992 48 33.7176 48 33.3198V14.6802C48 14.2824 47.842 13.9008 47.5607 13.6195L34.3805 0.43934ZM24 12C25.6062 12 26.8613 13.3869 26.7015 14.9851L25.6493 25.5074C25.5645 26.3548 24.8515 27 24 27C23.1485 27 22.4355 26.3548 22.3507 25.5074L21.2985 14.9851C21.1387 13.3869 22.3938 12 24 12ZM24.0046 30C25.6615 30 27.0046 31.3431 27.0046 33C27.0046 34.6569 25.6615 36 24.0046 36C22.3478 36 21.0046 34.6569 21.0046 33C21.0046 31.3431 22.3478 30 24.0046 30Z" fill="#333333"/>
</svg>
