<?xml version="1.0" encoding="utf-8"?>
<!-- Generator: Adobe Illustrator 22.1.0, SVG Export Plug-In . SVG Version: 6.00 Build 0)  -->
<svg version="1.1" id="Layer_1" xmlns="http://www.w3.org/2000/svg" xmlns:xlink="http://www.w3.org/1999/xlink" x="0px" y="0px"
	 viewBox="0 0 374.1 43.8" style="enable-background:new 0 0 374.1 43.8;" xml:space="preserve">
<style type="text/css">
	.st0{fill:#E67E22;}
	.st1{fill:#FDFEFE;stroke:#FFFFFF;stroke-width:4;stroke-miterlimit:10;}
	.st2{fill:#E67E22;stroke:#E67E22;stroke-width:3;stroke-miterlimit:10;}
	.st3{fill:#FDFEFE;}
	.st4{fill:#FFFFFF;}
</style>
<title>logo</title>
<rect y="0" class="st0" width="188.1" height="43.8"/>
<path class="st1" d="M69.2,27.6c0,4.4-2.2,6.6-6.6,6.6H39.5V9.5h23.1c4.4,0,6.6,2.2,6.6,6.6c0,2.8-0.9,4.8-2.8,5.8
	C68.3,22.9,69.2,24.8,69.2,27.6z M67.6,16.1c0-3.3-1.6-4.9-4.9-4.9H41.2v9.9h21.4C65.9,21.1,67.6,19.4,67.6,16.1L67.6,16.1z
	 M62.6,32.6c3.3,0,4.9-1.6,4.9-4.9c0-3.3-1.6-4.9-4.9-4.9H41.2v9.9L62.6,32.6z"/>
<path class="st1" d="M98,28.4H80.9l-3.6,5.8h-1.7L89.5,12l13.9,22.3h-1.7L98,28.4z M97.1,26.9l-7.6-12.3l-7.6,12.3H97.1z"/>
<path class="st1" d="M132,32.8c2.9,0,4.4-1.5,4.4-4.4h1.5c0,3.9-1.9,5.8-5.8,5.8h-14.6c-3.9,0-5.8-1.9-5.8-5.8V18.2
	c0-3.9,1.9-5.8,5.8-5.8H132c3.9,0,5.8,1.9,5.8,5.8h-1.5c0-2.9-1.5-4.4-4.4-4.4h-14.6c-2.9,0-4.4,1.5-4.4,4.4v10.2
	c0,2.9,1.5,4.4,4.4,4.4H132z"/>
<path class="st1" d="M149.2,24v10.2h-1.5V12.3h1.5v10.2h11.4L173,12.3h2.3l-13.3,11l13.3,11H173L160.6,24H149.2z"/>
<path class="st2" d="M205.5,34.2c-4.4,0-6.6-2.2-6.6-6.6V16.1c0-4.4,2.2-6.6,6.6-6.6H222c4.4,0,6.6,2.2,6.6,6.6v11.5
	c0,4.4-2.2,6.6-6.6,6.6L205.5,34.2z M200.5,27.6c0,3.3,1.6,4.9,4.9,4.9H222c3.3,0,4.9-1.6,4.9-4.9V16.1c0-3.3-1.6-4.9-4.9-4.9h-16.5
	c-3.3,0-4.9,1.6-4.9,4.9V27.6z"/>
<path class="st2" d="M263.3,11.1v1.5h-26.2v9.2h24.6v1.5h-24.6v10.8h-1.5V11.1L263.3,11.1z"/>
<path class="st2" d="M296.4,11.1v1.5h-26.2v9.2h24.6v1.5h-24.6v10.8h-1.5V11.1L296.4,11.1z"/>
<path class="st2" d="M303.4,34.2h-1.5V11.1h1.5V34.2z"/>
<path class="st2" d="M331.8,32.7c3.1,0,4.6-1.5,4.6-4.6h1.5c0,4.1-2.1,6.2-6.2,6.2h-15.4c-4.1,0-6.2-2.1-6.2-6.2V17.3
	c0-4.1,2.1-6.2,6.2-6.2h15.4c4.1,0,6.2,2.1,6.2,6.2h-1.5c0-3.1-1.5-4.6-4.6-4.6h-15.4c-3.1,0-4.6,1.5-4.6,4.6v10.8
	c0,3.1,1.5,4.6,4.6,4.6H331.8z"/>
<path class="st2" d="M346.4,32.7h26.2v1.5h-27.7V11.1h27.7v1.5h-26.2v9.2H371v1.5h-24.6V32.7z"/>
<circle class="st3" cx="20.2" cy="18.9" r="6.4"/>
<polygon class="st4" points="20.2,19.9 20.2,31.2 25,31.2 "/>
<polygon class="st4" points="20.2,19.9 20.2,31.2 15.5,31.2 "/>
</svg>
