<svg id="Layer_5" data-name="Layer 5" xmlns="http://www.w3.org/2000/svg" xmlns:xlink="http://www.w3.org/1999/xlink" viewBox="0 0 803.03 160.51"><defs><style>.cls-1{fill:none;}.cls-2{clip-path:url(#clip-path);}.cls-3{fill:#ce1126;}.cls-4{fill:#0038a8;}.cls-5{fill:#fcd116;}</style><clipPath id="clip-path"><rect class="cls-1" width="803.03" height="160.51"/></clipPath></defs><g class="cls-2"><path class="cls-3" d="M457.55,74.59A60.54,60.54,0,0,1,396.81,135c-33.11-.14-60.82-28-60.58-60.89.24-33.15,27.6-60.23,61-60.41C430.28,13.51,457.57,41.09,457.55,74.59Zm-99.48-.19c0,22.42,17,39.34,39.41,39.08,21.38-.24,38.85-17.4,39.26-38.54.41-21.56-17.39-39.5-39.35-39.68C375,35.09,358.12,51.91,358.07,74.4Z"/><path class="cls-3" d="M481.72,73c-.45-15.17,5.93-29.33,17.37-41.33,5.4-5.65,12.05-11.11,19.37-4.28s2.52,13.46-3.22,19.22c-12.69,12.71-15.1,27.73-8.15,43.81,6.36,14.72,18.47,22.45,34.44,22.72,16.5.27,29.13-7.3,36-22.41,6.78-14.92,5.08-29.27-5.95-42-1.74-2-3.74-3.78-5.42-5.83-4.17-5.07-5.09-10.52-.1-15.4s10.2-3.52,15.46.32C600.41,41.67,608.41,71,599.62,95a60.71,60.71,0,0,1-67.5,39.1C502.6,128.85,481.87,104.42,481.72,73Z"/><path class="cls-4" d="M67.2,74.46c0,19.8,11.68,33.07,33.11,38.86,7.72,2.09,21.22.82,18.33,13.53-2.54,11.19-13.83,9.32-23.46,7.25-27-5.82-43.91-22-49.69-48.75C40,60.19,50.21,39.88,69.91,25.11c20.46-15.33,43.33-15.2,66.29-5,2.75,1.22,5.07,3.49,7.46,5.43,4.63,3.74,6.55,8.09,3.14,13.82-3.31,5.57-7.73,6.58-13.5,4.2S121.93,38.6,116,37C91,30.13,67.21,48.52,67.2,74.46Z"/><path class="cls-4" d="M179.66,74.18c0-14.12.06-28.24,0-42.37,0-8,2.19-14.4,11.43-14.52s11.69,6.18,11.67,14.22c-.05,22.07.28,44.14-.16,66.2-.17,8.48,1.25,13.63,11.3,12.61,6.93-.71,10.9,3.89,11.79,10.08,1,7.06-4.32,10.31-10.13,11.81a50.77,50.77,0,0,1-24.86.07c-7.92-1.93-11.27-7.47-11.1-15.73C179.88,102.43,179.66,88.3,179.66,74.18Z"/><path class="cls-4" d="M282.46,88.44c0-9.68-.06-19.37,0-29,.05-7,2.88-12.45,10.41-12.72S303.94,51.5,304,58.61c.15,20.68,0,41.36,0,62,0,6.83-3.13,10.72-10.34,10.84-7.8.13-11.2-3.85-11.17-11.37C282.51,109.56,282.48,99,282.46,88.44Z"/><path class="cls-4" d="M666,17.42c12.28,4.17,21.36,11.28,27.26,21h55.27A10.51,10.51,0,0,0,759,27.92h0a10.51,10.51,0,0,0-10.51-10.5Z"/><path class="cls-3" d="M666,130.86c12.28-4.17,21.36-11.29,27.26-21h55.27A10.51,10.51,0,0,1,759,120.35h0a10.52,10.52,0,0,1-10.51,10.51Z"/><circle class="cls-5" cx="542.57" cy="24.19" r="11.95"/><circle class="cls-5" cx="641.64" cy="121.53" r="11.95"/><circle class="cls-5" cx="704.44" cy="74.57" r="11.95"/><circle class="cls-5" cx="641.64" cy="29.37" r="11.95"/><circle class="cls-5" cx="447.81" cy="136.32" r="11.95"/><circle class="cls-5" cx="293.27" cy="24.19" r="11.95"/><circle class="cls-5" cx="247.98" cy="121.53" r="11.95"/><circle class="cls-5" cx="139.48" cy="113.49" r="11.95"/></g></svg>